# xmcd
#
# Track frame offsets:
#	150
#	37955
#	74075
#	98300
#	111090
#	120460
#	157415
#	186690
#	200165
#	206830
#	238900
#	278670
#	316975
#
# Disc length: 4461 seconds
#
# Revision: 0
# Processed by: cddbd v1.4PL0 Copyright (c) Steve Scherf et al.
# Submitted via: EasyCDDAExtractor 4.6.0.1
#
DISCID=c9116b0d
DTITLE=Stevie Ray Vaughan - A Tale Untold 1
DYEAR=1900
DGENRE=Blues
TTITLE0=Tell me where we're going! (instr.song)
TTITLE1=Life without you (take2)
TTITLE2=Lightnin' Sky Hopkins (take2)
TTITLE3=Hangnails and boogers - Lightnin' sky Hopkins (take2)(instr. version)
TTITLE4=Hug you Squeeze You ( Take 1 )
TTITLE5=May I Have a little Talk with you (take 1)
TTITLE6=I'm Leaving you ( commit a crime )
TTITLE7=Blues
TTITLE8=Guitar Solo
TTITLE9=Say What! (take2)
TTITLE10=Jazzy Thing
TTITLE11=Chitlins con carne
TTITLE12=Gone Home
EXTD=
EXTT0=
EXTT1=
EXTT2=
EXTT3=
EXTT4=
EXTT5=
EXTT6=
EXTT7=
EXTT8=
EXTT9=
EXTT10=
EXTT11=
EXTT12=
PLAYORDER=
